# Blender v2.79 (sub 0) OBJ File: 'building3.blend'
# www.blender.org
mtllib building3.mtl
o Cube.000
v -0.583790 1.479842 0.583790
v -0.583790 1.479842 -0.583790
v 0.583790 1.479842 0.583790
v 0.583790 1.479842 -0.583790
vt 0.815136 0.500369
vt 0.631378 0.500369
vt 0.631378 0.684127
vt 0.815136 0.684127
vn 0.0000 -1.0000 0.0000
usemtl Material
s off
f 2/1/1 4/2/1 3/3/1 1/4/1
o Cube.001
v -0.583790 2.745183 0.583790
v -0.583790 4.943627 0.583790
v -0.583790 2.745183 -0.583790
v -0.583790 4.943627 -0.583790
v 0.583790 2.745183 0.583790
v 0.583790 4.943627 0.583790
v 0.583790 2.745183 -0.583790
v 0.583790 4.943627 -0.583790
v 1.000000 -0.500000 -1.000000
v 1.000000 -0.500000 1.000000
v -1.000000 -0.500000 1.000000
v -1.000000 -0.500000 -1.000000
v 1.000000 2.733140 -0.999999
v 0.999999 2.733136 1.000001
v -1.000000 2.733136 1.000000
v -1.000000 2.733140 -1.000000
v -0.049537 5.008782 0.094152
v -0.049537 5.008782 -0.094152
v 0.049537 5.008782 0.094152
v 0.049537 5.008782 -0.094152
vt 0.702284 0.972266
vt 0.701107 0.871136
vt 0.588044 0.871136
vt 0.588044 0.971828
vt 0.553855 0.696883
vt 0.619360 0.631378
vt 0.619360 0.946145
vt 0.553855 0.880640
vt 0.531112 0.825722
vt 0.531112 0.691365
vt 0.648467 0.691365
vt 0.648467 0.825722
vt 0.553118 0.815136
vt 0.553117 0.716066
vt 0.445814 0.716066
vt 0.445814 0.815136
vt 0.687111 0.817488
vt 0.687111 0.714890
vt 0.549760 0.714890
vt 0.549760 0.817488
vt 0.564030 0.884482
vt 0.648112 0.961544
vt 0.464354 0.961544
vt 0.548437 0.884483
vt 0.631378 0.315136
vt 0.946145 0.315136
vt 0.946145 0.000369
vt 0.631378 0.000369
vt 0.999902 0.000098
vt 0.999901 0.310834
vt 0.664663 0.313187
vt 0.663487 0.000098
vt 0.337487 0.314837
vt 0.337487 0.000070
vt 0.662023 -0.000369
vt 0.662023 0.314398
vt 0.332821 0.305884
vt 0.331206 0.002423
vt 0.003440 0.003599
vt 0.003440 0.307061
vt 0.335592 0.000369
vt 0.334416 0.312783
vt 0.648944 0.309992
vt 0.647030 0.000808
vt 0.483003 0.417841
vt 0.548507 0.352336
vt 0.548507 0.667103
vt 0.483003 0.601599
vt 0.540637 0.392241
vt 0.606142 0.326736
vt 0.603790 0.621508
vt 0.538285 0.556003
vt 0.491610 0.334329
vt 0.557114 0.268824
vt 0.557114 0.583591
vt 0.491610 0.518087
vt 0.288318 0.815873
vt 0.288318 0.845509
vt 0.272725 0.845509
vt 0.272725 0.815873
vt 0.628116 0.936843
vt 0.544034 0.859782
vt 0.544034 0.830146
vt 0.628116 0.753085
vt 0.538034 0.647674
vt 0.615095 0.731756
vt 0.615095 0.747349
vt 0.538034 0.831432
vt 0.653743 0.883185
vt 0.569660 0.806124
vt 0.569660 0.776489
vt 0.653743 0.699427
vn 1.0000 0.0000 0.0000
vn 0.0289 0.9996 0.0000
vn -1.0000 0.0000 0.0000
vn 0.0000 0.0000 -1.0000
vn 0.0000 0.0000 1.0000
vn 0.0000 0.9913 0.1319
vn 0.0000 -1.0000 0.0000
vn -0.0000 0.9996 0.0289
vn -0.0289 0.9996 0.0000
vn 0.0000 0.9996 -0.0289
vn 0.0000 1.0000 0.0000
vn -0.1211 0.9926 0.0000
vn 0.0000 0.9913 -0.1319
vn 0.1211 0.9926 0.0000
usemtl Material_Material_Emit.002
s off
f 11/5/2 12/6/2 10/7/2 9/8/2
f 9/9/3 18/10/3 17/11/3 11/12/3
usemtl Material_Untitled.png
f 5/13/4 6/14/4 8/15/4 7/16/4
f 7/17/5 8/18/5 12/19/5 11/20/5
f 9/21/6 10/22/6 6/23/6 5/24/6
f 21/25/7 6/26/7 10/27/7 23/28/7
f 13/29/8 14/30/8 15/31/8 16/32/8
f 13/33/2 17/34/2 18/35/2 14/36/2
f 14/37/6 18/38/6 19/39/6 15/40/6
f 15/41/4 19/42/4 20/43/4 16/44/4
f 17/45/5 13/46/5 16/47/5 20/48/5
f 5/49/9 19/50/9 18/51/9 9/52/9
f 7/53/10 20/54/10 19/55/10 5/56/10
f 11/57/11 17/58/11 20/59/11 7/60/11
f 22/61/12 21/62/12 23/63/12 24/64/12
f 6/65/13 21/66/13 22/67/13 8/68/13
f 8/69/14 22/70/14 24/71/14 12/72/14
f 12/73/15 24/74/15 23/75/15 10/76/15
