# Blender v2.79 (sub 0) OBJ File: 'newship.blend'
# www.blender.org
mtllib newship.mtl
o Plane.003_Plane.002
v 0.108944 0.105629 -0.254518
v -0.205693 -0.040093 -0.258614
v 0.205580 -0.014496 -0.262426
v 0.002243 -0.140584 -0.261581
v -0.002202 -0.004906 -0.686226
v 0.005856 -0.029482 0.048764
v -0.105000 0.107765 -0.252101
v 0.007198 0.122103 -0.439796
v -0.488030 -0.028427 0.001432
v -0.245672 -0.029116 0.001496
v -0.205693 -0.040093 -0.258614
v -0.488030 -0.028427 0.001432
v -0.245672 -0.029116 0.001496
v -0.205693 -0.040093 -0.258614
v 0.005856 -0.029482 0.048764
v -0.245672 -0.029116 0.001496
v -0.491921 -0.027927 0.016487
v -0.488571 -0.030210 0.016484
v 0.205580 -0.014496 -0.262426
v -0.002202 -0.004906 -0.686226
v 0.005856 -0.029482 0.048764
v 0.007198 0.122103 -0.439796
v 0.255497 -0.027094 0.009795
v 0.361554 -0.147739 0.005207
v 0.363312 0.094373 0.016027
v 0.367296 -0.045656 0.601009
v -0.369064 0.090236 0.002300
v -0.368376 -0.135558 -0.004071
v -0.488030 -0.028427 0.001432
v -0.245672 -0.029116 0.001496
v -0.363653 -0.046064 0.591931
v 0.004573 -0.039514 0.243801
v -0.488030 -0.028427 0.001432
v -0.245672 -0.029116 0.001496
v 0.005856 -0.029482 0.048764
v -0.245672 -0.029116 0.001496
v 0.205580 -0.014496 -0.262426
v 0.005856 -0.029482 0.048764
v 0.255497 -0.027094 0.009795
v 0.205580 -0.014496 -0.262426
v 0.481332 -0.029894 0.006038
v 0.255497 -0.027094 0.009795
v 0.005856 -0.029482 0.048764
v -0.245672 -0.029116 0.001496
v 0.004573 -0.039514 0.243801
v 0.005856 -0.029482 0.048764
v 0.255497 -0.027094 0.009795
v 0.004573 -0.039514 0.243801
v 0.004573 -0.039514 0.243801
v 0.004573 -0.039514 0.243801
v -0.310614 -0.040116 0.320565
v 0.255497 -0.027094 0.009795
v 0.004573 -0.039514 0.243801
v 0.318750 -0.038914 0.320565
v 0.005856 -0.029482 0.048764
v -0.245672 -0.029116 0.001496
v 0.004573 -0.039514 0.243801
v -0.245672 -0.029116 0.001496
v 0.004573 -0.039514 0.243801
v -0.310614 -0.040116 0.320565
v 0.255497 -0.027094 0.009795
v 0.004573 -0.039514 0.243801
v 0.318750 -0.038914 0.320565
v 1.250154 -0.029894 0.369268
v 0.411702 -0.045656 0.399052
v -0.487769 -0.029838 0.006407
v -1.256474 -0.025066 0.367172
v -0.410775 -0.042780 0.399612
v -0.410668 -0.039871 0.399748
v -1.256366 -0.022157 0.369928
v -0.487662 -0.026929 0.006542
v 0.411702 -0.045656 0.399052
v 1.250154 -0.029894 0.366647
v 0.481332 -0.029894 0.006038
vt 0.336208 0.721800
vt 0.254691 0.561049
vt 0.173246 0.597824
vt 0.336208 0.522419
vt 0.890133 0.000872
vt 0.818348 0.201430
vt 0.888812 0.251296
vt 0.739948 0.417283
vt 0.753077 0.597020
vt 0.649973 0.601725
vt 0.753077 0.849148
vt 0.794912 0.118911
vt 0.902374 0.233595
vt 0.936947 0.251638
vt 0.978012 0.075580
vt 0.168053 0.479739
vt 0.088873 0.511505
vt 0.083919 0.712044
vt 0.000440 0.644569
vt 0.084798 0.643116
vt 0.167065 0.514643
vt 0.167065 0.701542
vt 0.088873 0.511505
vt 0.000440 0.644569
vt 0.083919 0.712044
vt 0.890855 0.396273
vt 0.597025 0.346569
vt 0.890855 0.299967
vt 0.633938 0.909394
vt 0.339314 0.860978
vt 0.633938 0.815153
vt 0.141071 0.919661
vt 0.141071 0.818842
vt 0.045965 0.827116
vt 0.042377 0.921457
vt 0.439077 0.714678
vt 0.438742 0.417435
vt 0.339314 0.432100
vt 0.336207 0.817963
vt 0.336207 0.722679
vt 0.042377 0.768259
vt 0.512168 0.502767
vt 0.592779 0.604056
vt 0.649094 0.417283
vt 0.472575 0.671696
vt 0.512168 0.502767
vt 0.649094 0.417283
vt 0.592779 0.604056
vt 0.753957 0.858946
vt 0.831016 0.913788
vt 0.831016 0.716737
vt 0.649094 0.662360
vt 0.472575 0.671696
vt 0.592779 0.604056
vt 0.592779 0.604056
vt 0.472575 0.671696
vt 0.512168 0.502767
vt 0.649094 0.662360
vt 0.592779 0.604056
vt 0.472575 0.671696
vt 0.288404 0.057539
vt 0.288404 0.057539
vt 0.288404 0.057539
vt 0.288404 0.057539
vt 0.288404 0.057539
vt 0.288404 0.057539
vt 0.079316 0.298320
vt 0.238538 0.419345
vt 0.184209 0.459760
vt 0.148454 0.243779
vt 0.112438 0.271676
vt 0.067137 0.218469
vt 0.112318 0.188486
vt 0.141245 0.137911
vt 0.044644 0.195799
vt 0.044644 0.195799
vt 0.044644 0.195799
vt 0.044644 0.195799
vt 0.044644 0.195799
vt 0.141245 0.137911
vt 0.141245 0.137911
vt 0.141245 0.137911
vt 0.141245 0.137911
vt 0.141245 0.137911
vt 0.141245 0.137911
vt 0.596145 0.416403
vt 0.473311 0.261237
vt 0.596145 0.229380
vt 0.471696 0.229631
vt 0.355464 0.000440
vt 0.339794 0.264083
vt 0.479292 0.000440
vt 0.604703 0.079675
vt 0.667068 0.180943
vt 0.783097 0.220350
vt 0.000000 0.000000
vt 0.105489 0.098923
vt 0.030220 0.124979
vt 0.846951 0.715857
vt 0.753957 0.700575
vt 0.846951 0.417283
vt 0.638174 0.714830
vt 0.634261 0.814273
vt 0.339314 0.768171
vt 0.215516 0.331311
vt 0.336667 0.294692
vt 0.378025 0.339497
vt 0.120987 0.097802
vt 0.160059 0.050970
vt 0.143900 0.115825
vt 0.288404 0.057539
vt 0.338902 0.000045
vt 0.330276 0.078244
vt 0.288404 0.057539
vt 0.330276 0.078244
vt 0.330276 0.078244
vt 0.471724 0.416749
vt 0.041987 0.366600
vt 0.088496 0.348836
vt 0.093279 0.415510
vt 0.143900 0.115825
vt 0.158470 0.053088
vt 0.159454 0.052770
vt 0.168018 0.112469
vn 0.0137 0.9116 0.4108
vn 0.7006 0.5323 0.4753
vn 0.7216 0.6029 -0.3402
vn -0.7317 0.4768 0.4871
vn -0.7752 0.5422 -0.3243
vn 0.7180 0.6072 -0.3403
vn -0.6427 0.6907 -0.3315
vn 0.0109 0.9965 0.0826
vn -0.0091 -0.9991 0.0408
vn 0.0029 0.9991 -0.0417
vn 0.0091 0.9991 -0.0408
vn -0.7422 0.6506 0.1608
vn -0.7434 -0.6580 0.1199
vn 0.0003 0.0282 -0.9996
vn 0.6871 0.7093 0.1577
vn 0.6486 -0.7534 0.1080
vn 0.0023 -0.9989 -0.0466
vn 0.0015 -0.9987 -0.0514
vn -0.0023 0.9989 0.0466
vn 0.0131 0.9990 0.0438
vn -0.0082 0.9986 0.0513
vn -0.0015 0.9987 0.0514
vn 0.0082 -0.9986 -0.0513
vn 0.0118 -0.9991 -0.0404
vn -0.0118 0.9991 0.0404
vn 0.7224 0.6735 0.1563
vn -0.0161 0.0448 -0.9989
vn 0.3841 -0.4223 0.8211
vn 0.0422 0.4435 -0.8953
vn 0.0000 0.0000 1.0000
vn -0.0000 -1.0000 0.0000
vn 0.0121 -0.6090 0.7930
vn -0.8905 -0.4507 0.0614
vn 0.0479 -0.9987 0.0145
vn -0.0044 -0.0487 -0.9988
vn 0.9898 -0.1373 0.0369
vn -0.0068 -0.9993 -0.0358
vn 0.0068 0.9993 0.0358
vn 0.0414 0.9987 -0.0286
vn 0.8000 0.4075 -0.4404
vn -0.6595 -0.7426 0.1167
vn -0.6968 0.6974 0.1676
vn 0.6963 -0.7085 0.1147
vn 0.0175 -0.9992 -0.0370
vn 0.0198 0.9994 0.0290
vn -0.0174 0.9992 0.0370
vn -0.0188 0.9998 -0.0000
vn -0.7556 -0.3110 -0.5764
vn 0.7440 -0.4161 -0.5228
vn -0.3692 -0.7255 0.5807
vn -0.4469 0.3524 0.8222
vn -0.5300 0.7535 -0.3889
usemtl Material
s off
f 6/1/1 1/2/1 7/3/1
f 6/1/2 3/4/2 1/2/2
f 5/5/3 1/6/3 3/7/3
f 6/8/4 7/9/4 2/10/4
f 2/10/5 7/9/5 5/11/5
f 8/12/6 1/6/6 5/5/6
f 5/13/7 7/14/7 8/15/7
f 7/3/8 1/2/8 8/16/8
f 2/17/9 6/18/9 10/19/9
f 13/20/10 11/21/10 12/22/10
f 14/23/11 16/24/11 15/25/11
f 23/26/12 26/27/12 25/28/12
f 24/29/13 26/30/13 23/31/13
f 27/32/14 30/33/14 28/34/14 29/35/14
f 31/36/15 30/37/15 27/38/15
f 28/39/16 30/40/16 31/41/16
f 23/42/17 21/43/17 19/44/17
f 21/43/18 23/42/18 32/45/18
f 39/46/19 37/47/19 38/48/19
f 42/49/20 41/50/20 40/51/20
f 44/52/21 45/53/21 43/54/21
f 46/55/22 48/56/22 47/57/22
f 56/58/23 55/59/23 57/60/23
f 54/61/24 45/62/24 23/63/24
f 63/64/25 61/65/25 62/66/25
f 26/67/26 41/68/26 25/69/26
f 23/70/27 25/71/27 41/72/27 24/73/27
f 67/74/28 66/75/28 71/76/28 70/77/28
f 68/78/29 67/74/29 70/77/29 69/79/29
f 41/80/30 65/81/30 72/82/30 74/83/30
f 64/84/31 41/80/31 74/83/31 73/85/31
s 1
f 6/86/32 2/87/33 4/88/34
f 4/89/34 5/90/35 3/91/36
f 4/88/34 2/87/33 5/92/35
usemtl Material_Material_Emit.001
s off
f 60/93/37 58/94/37 59/95/37
s 1
f 51/96/38 32/97/39 30/98/40
usemtl Material_Material_Emit
s off
f 29/99/41 28/100/41 31/101/41
f 27/102/42 29/103/42 31/104/42
f 26/105/43 24/106/43 41/107/43
f 65/81/44 41/80/44 64/84/44
f 68/108/45 66/109/45 67/110/45
f 72/111/46 73/112/46 74/113/46
f 65/114/47 64/115/47 73/116/47 72/111/47
s 1
f 4/89/34 3/91/36 6/117/32
f 69/118/48 70/119/49 71/120/50
f 66/121/51 68/122/52 69/123/48 71/124/50
l 2 9
l 18 17
l 20 19
l 22 20
l 21 30
l 33 34
l 35 36
l 54 53
l 53 52
l 52 54
